# xmcd CD database file
#
# Track frame offsets:
#	150
#	19380
#	34927
#	48857
#	65470
#	79250
#	97700
#	138320
#	150457
#	163160
#	177762
#	193890
#	213027
#	235100
#	271790
#	301892
#	326672
#
# Disc length: 4536 seconds
#
# Revision: 4
# Processed by: cddbd v1.5.2PL0 Copyright (c) Steve Scherf et al.
# Submitted via: CDex 2.02
#
DISCID=da11b611
DTITLE=Terry Callier - Essential, the very best of
DYEAR=1998
DGENRE=R&B - Smooth Jazz
TTITLE0=Ordinary Joe
TTITLE1=Gotta Get Closer To You
TTITLE2=Lover (Where Have You Gone)
TTITLE3=Just As Long As We're In Love
TTITLE4=Baby Take Your Time
TTITLE5=Occasional Rain
TTITLE6=Dancing Girl
TTITLE7=Look At Me Now
TTITLE8=You Were Just Fooling Me
TTITLE9=I Just Can't Help Myself
TTITLE10=Sail Away
TTITLE11=Color Me Free
TTITLE12=Soulful Clown
TTITLE13=City Side And Country Side
TTITLE14=I'd Rather Be With You
TTITLE15=You Don't Care
TTITLE16=Blues
EXTD=YEAR: 1998
EXTT0=
EXTT1=
EXTT2=
EXTT3=
EXTT4=
EXTT5=
EXTT6=
EXTT7=
EXTT8=
EXTT9=
EXTT10=
EXTT11=
EXTT12=
EXTT13=
EXTT14=
EXTT15=
EXTT16=
PLAYORDER=
